# xmcd
#
# Track frame offsets:
#	150
#	17882
#	33885
#	47365
#	60472
#	69892
#	82520
#	97320
#	115642
#	131930
#
# Disc length: 1945 seconds
#
# Revision: 0
# Processed by: cddbd v1.5.2PL0 Copyright (c) Steve Scherf et al.
# Submitted via: audiograbber 1.83.01
#
DISCID=7407970a
DTITLE=Various Artist - Everything is Beautiful
DYEAR=1995
DGENRE=Pop
TTITLE0=The Birds - Turn turn turn
TTITLE1=Ray Stevens - Everything is beautiful
TTITLE2=Scott Mc Kenzie - San Francisco
TTITLE3=Percy Sledge - When a man loves a women
TTITLE4=Bill Withers - Ain't no sunshine
TTITLE5=Johnny Nash - I can see clearly now
TTITLE6=Aretha Franklin - Try a little tenderness
TTITLE7=Spinning Wheel - Blood Sweat and Tears
TTITLE8=Santana - Black Magic Woman
TTITLE9=Fleetwood Mac - Albatross
EXTD=
EXTT0=
EXTT1=
EXTT2=
EXTT3=
EXTT4=
EXTT5=
EXTT6=
EXTT7=
EXTT8=
EXTT9=
PLAYORDER=
